# This file uses centimeters as units for non-parametric coordinates.

mtllib GodzillaLeftUpperLeg.mtl
g default
v -0.844819 -0.291322 0.878819
v -0.756341 0.039782 0.915788
v -0.888779 0.033344 0.493555
v -1.013778 -0.274004 0.459274
v -0.648769 0.363526 0.792854
v -0.701532 0.356484 0.371972
v -0.532547 0.295931 -0.241102
v -0.838831 -0.035027 -0.088507
v -0.953004 -0.256182 0.014098
v -0.605722 0.691326 0.707978
v -0.570615 0.694060 0.319903
v -0.580861 0.898759 0.607297
v -0.501052 0.939734 0.297336
v -0.374801 0.898759 -0.017008
v -0.385892 0.686454 -0.096284
v -0.352004 0.363525 0.985195
v -0.284777 0.039241 1.102937
v -0.242230 -0.296631 1.060211
v 0.015374 0.362738 -0.475692
v -0.059669 0.698952 -0.310109
v -0.234605 0.964400 -0.152272
v -0.453275 1.057224 0.262597
v -0.563530 0.964400 0.700009
v -0.482768 0.700163 0.896827
v 0.492286 -0.666883 0.563414
v 0.878107 -0.621592 0.124158
v 0.465158 -1.076488 0.267686
v 0.829588 -1.039041 -0.118817
v 0.931543 -0.935253 -0.569700
v 0.988360 -0.491316 -0.358659
v -0.927806 -0.487593 -0.365196
v -1.000508 -0.611567 0.110427
v -0.857758 -0.935253 -0.569700
v -0.901570 -1.039041 -0.118817
v -0.740838 -1.076488 0.267686
v -0.827154 -0.665371 0.539370
v -0.214455 -0.681299 0.702552
v -0.177844 -1.086384 0.408600
v 0.903042 -0.264649 -0.685527
v 0.846055 -0.746799 -0.905781
v 0.509208 -0.568241 -1.100947
v 0.569686 -0.046497 -0.847791
v -0.023632 0.031541 -0.896457
v -0.093217 -0.501900 -1.165328
v -0.637711 -0.568241 -1.100947
v -0.578438 -0.046497 -0.828307
v -0.836014 -0.264341 -0.664047
v -0.833410 -0.746799 -0.905781
v -0.166459 0.363525 1.065505
v -0.017902 0.041012 1.165328
v 0.316161 -0.289668 1.093939
v 0.325320 0.329336 -0.454573
v 0.146675 0.703737 -0.357687
v -0.107759 1.029943 -0.245479
v -0.441750 1.127187 0.237969
v -0.544049 1.029941 0.787063
v -0.370804 0.706779 0.990302
v 0.534670 -0.476649 0.836556
v 0.890283 -0.496825 0.338275
v 1.013778 -0.381066 -0.133324
v 0.933582 -0.149442 -0.488678
v 0.602476 0.124718 -0.640622
v -0.826311 -0.829954 -0.868338
v -0.845528 -1.006085 -0.527197
v -0.886894 -1.094283 -0.088817
v -0.728925 -1.120389 0.281794
v -0.175150 -1.127187 0.417515
v 0.457443 -1.120389 0.281794
v 0.816057 -1.094283 -0.088817
v 0.917522 -1.006085 -0.527197
v 0.834353 -0.829954 -0.868338
v 0.501169 -0.659919 -1.074417
v -0.096584 -0.594958 -1.143507
v -0.636042 -0.659919 -1.074417
vt 0.875000 0.200000
vt 0.875000 0.250000
vt 0.937500 0.250000
vt 0.937500 0.200000
vt 0.875000 0.300000
vt 0.937500 0.300000
vt 1.000000 0.300000
vt 1.000000 0.250000
vt 1.000000 0.200000
vt 0.875000 0.350000
vt 0.937500 0.350000
vt 0.875000 0.400000
vt 0.937500 0.400000
vt 1.000000 0.400000
vt 1.000000 0.350000
vt 1.000000 0.200000
vt 0.937500 0.200000
vt 1.000000 0.200000
vt 0.937500 0.200000
vt 0.875000 0.200000
vt 0.875000 0.200000
vt 1.000000 0.300000
vt 1.000000 0.250000
vt 1.000000 0.300000
vt 1.000000 0.250000
vt 0.875000 0.200000
vt 0.875000 0.200000
vt 0.937500 0.200000
vt 0.937500 0.200000
vt 1.000000 0.200000
vt 1.000000 0.200000
vt 1.000000 0.200000
vt 0.937500 0.200000
vt 0.875000 0.200000
vt 0.875000 0.200000
vt 0.875000 0.200000
vt 1.000000 0.250000
vt 1.000000 0.250000
vt 1.000000 0.300000
vt 1.000000 0.300000
vt 1.000000 0.300000
vt 1.000000 0.300000
vt 1.000000 0.300000
vt 1.000000 0.250000
vt 0.875000 0.250000
vt 0.875000 0.300000
vt 0.875000 0.300000
vt 0.875000 0.250000
vt 0.875000 0.200000
vt 0.875000 0.200000
vt 1.000000 0.350000
vt 1.000000 0.300000
vt 1.000000 0.300000
vt 1.000000 0.350000
vt 1.000000 0.400000
vt 1.000000 0.400000
vt 0.937500 0.400000
vt 0.937500 0.400000
vt 0.875000 0.400000
vt 0.875000 0.400000
vt 0.875000 0.350000
vt 0.875000 0.350000
vt 0.937500 0.200000
vt 0.875000 0.200000
vt 0.875000 0.200000
vt 0.937500 0.200000
vt 1.000000 0.200000
vt 1.000000 0.200000
vt 0.875000 0.200000
vt 1.000000 0.250000
vt 1.000000 0.250000
vt 1.000000 0.300000
vt 1.000000 0.300000
vt 1.000000 0.300000
vn -0.656388 0.199516 0.727563
vn -0.908290 0.411833 0.073508
vn -0.553604 -0.353324 0.754112
vn -0.982510 0.022693 0.184824
vn -0.885373 0.443699 -0.138730
vn -0.819923 0.342173 0.458961
vn -0.638100 0.643272 -0.423119
vn -0.837281 0.504103 -0.211754
vn -0.953664 0.256186 -0.157779
vn -0.957489 0.208504 0.199349
vn -0.922078 0.271858 -0.275437
vn -0.919160 0.252232 -0.302530
vn -0.968384 0.225574 -0.106530
vn -0.753385 0.372145 -0.542143
vn -0.821291 0.315000 -0.475664
vn -0.986068 0.058626 -0.155672
vn -0.979813 -0.188659 0.066138
vn -0.984805 -0.116599 -0.128703
vn -0.974252 -0.223970 0.025882
vn -0.537417 -0.564114 0.626864
vn -0.581735 -0.494792 0.645573
vn -0.421373 0.642986 -0.639542
vn -0.855943 0.393249 -0.335733
vn -0.921565 0.065879 -0.382593
vn -0.423285 0.356884 -0.832745
vn 0.385162 0.219268 0.896422
vn 0.798057 0.122296 0.590041
vn 0.467148 -0.487617 0.737565
vn 0.882255 -0.287321 0.372925
vn 0.989572 -0.133297 -0.054582
vn 0.985484 -0.136258 0.101267
vn -0.951932 -0.262288 -0.158209
vn -0.965117 -0.138313 0.222302
vn -0.471899 0.149738 0.868844
vn -0.002218 -0.543856 0.839175
vn 0.009703 0.214057 0.976773
vn 0.689824 -0.378808 -0.616966
vn 0.805006 0.082574 -0.587493
vn 0.312419 0.307807 -0.898693
vn 0.208053 -0.295097 -0.932540
vn -0.002047 -0.233479 -0.972360
vn -0.012759 0.379342 -0.925169
vn -0.293941 -0.276998 -0.914807
vn -0.910677 -0.235121 -0.339685
vn -0.128447 -0.142936 0.981362
vn -0.342672 0.143708 0.928399
vn -0.325779 0.024169 0.945137
vn -0.442990 0.174603 0.879360
vn -0.169096 -0.515465 0.840061
vn 0.028126 -0.658558 0.752004
vn 0.132795 0.693917 -0.707704
vn -0.184479 0.677358 -0.712148
vn -0.108631 0.301845 -0.947148
vn -0.399642 0.302506 -0.865319
vn -0.650568 0.290128 -0.701845
vn -0.559317 0.202641 -0.803804
vn -0.909484 0.110567 -0.400768
vn -0.919921 0.190331 -0.342811
vn -0.964352 0.244478 0.101267
vn -0.963515 0.155385 0.217933
vn -0.590718 0.007807 0.806841
vn -0.700709 0.092252 0.707458
vn 0.194547 -0.792723 0.577703
vn 0.368063 -0.670816 0.643845
vn 0.635832 -0.679047 0.366897
vn 0.831318 -0.407596 0.377857
vn 0.994232 -0.096898 -0.045985
vn 0.966716 -0.254294 0.028186
vn -0.060664 -0.653640 0.754370
vn 0.885853 0.333023 -0.323048
vn 0.801597 0.254515 -0.540984
vn 0.326234 0.498577 -0.803114
vn 0.292017 0.726221 -0.622358
vn -0.028367 0.607568 -0.793761
s 1
g polySurface51 polySurface47 polySurface46
usemtl lambert3SG
f 2/2/1 3/3/2 1/1/3
f 1/1/3 3/3/2 4/4/4
f 6/6/5 3/3/2 5/5/6
f 5/5/6 3/3/2 2/2/1
f 7/7/7 8/8/8 6/6/5
f 6/6/5 8/8/8 3/3/2
f 4/4/4 3/3/2 9/9/9
f 9/9/9 3/3/2 8/8/8
f 5/5/6 10/10/10 6/6/5
f 6/6/5 10/10/10 11/11/11
f 13/13/12 11/11/11 12/12/13
f 12/12/13 11/11/11 10/10/10
f 15/15/14 11/11/11 14/14/15
f 14/14/15 11/11/11 13/13/12
f 7/7/7 6/6/5 15/15/14
f 15/15/14 6/6/5 11/11/11
f 31/16/16 32/17/17 9/9/9
f 9/9/9 32/17/17 4/4/4
f 33/18/18 34/19/19 31/16/16
f 31/16/16 34/19/19 32/17/17
f 36/21/20 32/17/17 35/20/21
f 35/20/21 32/17/17 34/19/19
f 1/1/3 4/4/4 36/21/20
f 36/21/20 4/4/4 32/17/17
f 46/22/22 47/23/23 7/7/7
f 7/7/7 47/23/23 8/8/8
f 48/25/24 47/23/23 45/24/25
f 45/24/25 47/23/23 46/22/22
f 33/18/18 31/16/16 48/25/24
f 48/25/24 31/16/16 47/23/23
f 9/9/9 8/8/8 31/16/16
f 31/16/16 8/8/8 47/23/23
f 68/27/26 69/28/27 27/26/28
f 27/26/28 69/28/27 28/29/29
f 29/30/30 28/29/29 70/31/31
f 70/31/31 28/29/29 69/28/27
f 33/18/18 64/32/32 34/19/19
f 34/19/19 64/32/32 65/33/33
f 34/19/19 65/33/33 35/20/21
f 35/20/21 65/33/33 66/34/34
f 35/20/21 66/34/34 38/36/35
f 38/36/35 66/34/34 67/35/36
f 27/26/28 38/36/35 68/27/26
f 68/27/26 38/36/35 67/35/36
f 70/31/31 71/37/37 29/30/30
f 29/30/30 71/37/37 40/38/38
f 41/39/39 40/38/38 72/40/40
f 72/40/40 40/38/38 71/37/37
f 72/40/40 73/41/41 41/39/39
f 41/39/39 73/41/41 44/42/42
f 44/42/42 73/41/41 45/24/25
f 45/24/25 73/41/41 74/43/43
f 45/24/25 74/43/43 48/25/24
f 48/25/24 74/43/43 63/44/44
f 48/25/24 63/44/44 33/18/18
f 33/18/18 63/44/44 64/32/32
f 50/45/45 49/46/46 17/48/47
f 17/48/47 49/46/46 16/47/48
f 5/5/6 2/2/1 16/47/48
f 16/47/48 2/2/1 17/48/47
f 1/1/3 18/49/49 2/2/1
f 2/2/1 18/49/49 17/48/47
f 51/50/50 50/45/45 18/49/49
f 18/49/49 50/45/45 17/48/47
f 52/52/51 19/53/52 53/51/53
f 53/51/53 19/53/52 20/54/54
f 15/15/14 20/54/54 7/7/7
f 7/7/7 20/54/54 19/53/52
f 14/14/15 21/55/55 15/15/14
f 15/15/14 21/55/55 20/54/54
f 53/51/53 20/54/54 54/56/56
f 54/56/56 20/54/54 21/55/55
f 54/56/56 21/55/55 55/57/57
f 55/57/57 21/55/55 22/58/58
f 13/13/12 22/58/58 14/14/15
f 14/14/15 22/58/58 21/55/55
f 23/59/59 22/58/58 12/12/13
f 12/12/13 22/58/58 13/13/12
f 56/60/60 55/57/57 23/59/59
f 23/59/59 55/57/57 22/58/58
f 57/61/61 56/60/60 24/62/62
f 24/62/62 56/60/60 23/59/59
f 12/12/13 10/10/10 23/59/59
f 23/59/59 10/10/10 24/62/62
f 16/47/48 24/62/62 5/5/6
f 5/5/6 24/62/62 10/10/10
f 49/46/46 57/61/61 16/47/48
f 16/47/48 57/61/61 24/62/62
f 58/64/63 25/65/64 59/63/65
f 59/63/65 25/65/64 26/66/66
f 28/29/29 26/66/66 27/26/28
f 27/26/28 26/66/66 25/65/64
f 29/30/30 30/67/67 28/29/29
f 28/29/29 30/67/67 26/66/66
f 59/63/65 26/66/66 60/68/68
f 60/68/68 26/66/66 30/67/67
f 36/21/20 37/69/69 1/1/3
f 1/1/3 37/69/69 18/49/49
f 35/20/21 38/36/35 36/21/20
f 36/21/20 38/36/35 37/69/69
f 27/26/28 25/65/64 38/36/35
f 38/36/35 25/65/64 37/69/69
f 18/49/49 37/69/69 51/50/50
f 51/50/50 37/69/69 58/64/63
f 58/64/63 37/69/69 25/65/64
f 60/68/68 30/67/67 61/70/70
f 61/70/70 30/67/67 39/71/71
f 29/30/30 40/38/38 30/67/67
f 30/67/67 40/38/38 39/71/71
f 42/72/72 39/71/71 41/39/39
f 41/39/39 39/71/71 40/38/38
f 61/70/70 39/71/71 62/73/73
f 62/73/73 39/71/71 42/72/72
f 19/53/52 52/52/51 43/74/74
f 52/52/51 62/73/73 43/74/74
f 62/73/73 42/72/72 43/74/74
f 44/42/42 43/74/74 41/39/39
f 41/39/39 43/74/74 42/72/72
f 45/24/25 46/22/22 44/42/42
f 44/42/42 46/22/22 43/74/74
f 7/7/7 19/53/52 46/22/22
f 46/22/22 19/53/52 43/74/74
