# This file uses centimeters as units for non-parametric coordinates.

mtllib GodzillaRightUpperLeg.mtl
g default
v 0.844819 -0.289783 0.878819
v 1.013778 -0.272465 0.459274
v 0.888779 0.034882 0.493555
v 0.756341 0.041320 0.915788
v 0.953004 -0.254643 0.014098
v 0.838831 -0.033488 -0.088507
v 0.532547 0.297470 -0.241102
v 0.701532 0.358022 0.371972
v 0.648769 0.365064 0.792854
v 0.570615 0.695599 0.319903
v 0.605722 0.692864 0.707978
v 0.385891 0.687992 -0.096284
v 0.374801 0.900297 -0.017008
v 0.501051 0.941273 0.297336
v 0.580861 0.900297 0.607297
v 0.284776 0.040779 1.102937
v 0.352004 0.365064 0.985195
v 0.242230 -0.295093 1.060211
v 0.059669 0.700490 -0.310109
v -0.015374 0.364277 -0.475692
v 0.234605 0.965938 -0.152272
v 0.453275 1.058762 0.262597
v 0.563530 0.965938 0.700009
v 0.482768 0.701701 0.896827
v -0.878107 -0.620054 0.124158
v -0.492286 -0.665345 0.563414
v -0.988360 -0.489777 -0.358659
v -0.931544 -0.933715 -0.569700
v -0.829588 -1.037503 -0.118817
v -0.465158 -1.074950 0.267686
v 1.000508 -0.610029 0.110427
v 0.927806 -0.486055 -0.365196
v 0.827154 -0.663833 0.539370
v 0.740838 -1.074950 0.267686
v 0.901570 -1.037503 -0.118817
v 0.857758 -0.933715 -0.569700
v 0.214455 -0.679760 0.702552
v 0.177844 -1.084846 0.408600
v -0.903043 -0.263110 -0.685527
v -0.569686 -0.044959 -0.847791
v -0.509208 -0.566703 -1.100947
v -0.846055 -0.745261 -0.905781
v 0.023632 0.033079 -0.896457
v 0.578438 -0.044959 -0.828307
v 0.637711 -0.566703 -1.100947
v 0.093217 -0.500362 -1.165328
v 0.836014 -0.262803 -0.664047
v 0.833411 -0.745261 -0.905781
v 0.017901 0.042550 1.165328
v 0.166459 0.365064 1.065505
v -0.167412 -0.289984 1.084954
v -0.146675 0.705275 -0.357687
v -0.325320 0.330874 -0.454573
v 0.107759 1.031481 -0.245480
v 0.441750 1.128725 0.237969
v 0.544049 1.031479 0.787063
v 0.370804 0.708317 0.990302
v -0.890283 -0.495287 0.338275
v -0.534670 -0.475111 0.836556
v -1.013778 -0.379528 -0.133324
v -0.933582 -0.147904 -0.488678
v -0.602476 0.126256 -0.640622
v 0.844606 -1.009888 -0.523993
v 0.825775 -0.834686 -0.865514
v 0.635916 -0.665294 -1.072416
v 0.096838 -0.600437 -1.141862
v -0.500562 -0.665294 -1.072416
v -0.833471 -0.834686 -0.865514
v -0.916464 -1.009888 -0.523993
v -0.815036 -1.096910 -0.086555
v -0.456861 -1.122162 0.282857
v 0.174947 -1.128725 0.418187
v 0.728026 -1.122162 0.282857
v 0.885788 -1.096910 -0.086555
vt 0.875000 0.200000
vt 0.937500 0.200000
vt 0.937500 0.250000
vt 0.875000 0.250000
vt 1.000000 0.200000
vt 1.000000 0.250000
vt 1.000000 0.300000
vt 0.937500 0.300000
vt 0.875000 0.300000
vt 0.937500 0.350000
vt 0.875000 0.350000
vt 1.000000 0.350000
vt 1.000000 0.400000
vt 0.937500 0.400000
vt 0.875000 0.400000
vt 0.937500 0.200000
vt 1.000000 0.200000
vt 0.875000 0.200000
vt 0.875000 0.200000
vt 0.937500 0.200000
vt 1.000000 0.200000
vt 1.000000 0.250000
vt 1.000000 0.300000
vt 1.000000 0.250000
vt 1.000000 0.300000
vt 0.875000 0.200000
vt 0.937500 0.200000
vt 0.937500 0.200000
vt 0.875000 0.200000
vt 1.000000 0.200000
vt 1.000000 0.200000
vt 0.937500 0.200000
vt 1.000000 0.200000
vt 0.875000 0.200000
vt 0.875000 0.200000
vt 0.875000 0.200000
vt 1.000000 0.250000
vt 1.000000 0.250000
vt 1.000000 0.300000
vt 1.000000 0.300000
vt 1.000000 0.300000
vt 1.000000 0.300000
vt 1.000000 0.300000
vt 1.000000 0.250000
vt 0.875000 0.200000
vt 0.875000 0.250000
vt 0.875000 0.300000
vt 1.000000 0.400000
vt 1.000000 0.350000
vt 1.000000 0.300000
vt 0.937500 0.400000
vt 0.875000 0.400000
vt 0.875000 0.350000
vt 1.000000 0.200000
vt 0.937500 0.200000
vt 0.875000 0.200000
vt 0.875000 0.200000
vt 1.000000 0.250000
vt 1.000000 0.300000
vt 1.000000 0.300000
vt 1.000000 0.400000
vt 0.937500 0.400000
vt 1.000000 0.350000
vt 1.000000 0.300000
vt 1.000000 0.300000
vt 1.000000 0.250000
vt 1.000000 0.200000
vt 0.937500 0.200000
vt 0.875000 0.200000
vt 0.875000 0.200000
vt 0.875000 0.250000
vt 0.875000 0.300000
vt 0.875000 0.350000
vt 0.875000 0.400000
vn 0.982510 0.022693 0.184824
vn 0.908290 0.411833 0.073508
vn 0.553604 -0.353324 0.754112
vn 0.656388 0.199516 0.727563
vn 0.837281 0.504104 -0.211754
vn 0.953664 0.256186 -0.157779
vn 0.638100 0.643272 -0.423119
vn 0.885373 0.443700 -0.138730
vn 0.819922 0.342173 0.458961
vn 0.957489 0.208505 0.199349
vn 0.922078 0.271858 -0.275437
vn 0.753385 0.372145 -0.542143
vn 0.919160 0.252233 -0.302530
vn 0.821291 0.315000 -0.475663
vn 0.968384 0.225573 -0.106531
vn 0.979813 -0.188659 0.066138
vn 0.986068 0.058626 -0.155672
vn 0.537417 -0.564114 0.626864
vn 0.974223 -0.224117 0.025730
vn 0.582708 -0.492238 0.646647
vn 0.984647 -0.117674 -0.128931
vn 0.855943 0.393249 -0.335733
vn 0.421373 0.642986 -0.639542
vn 0.920663 0.062843 -0.385267
vn 0.421949 0.351750 -0.835602
vn -0.882775 -0.285380 0.373184
vn -0.798175 0.121999 0.589943
vn -0.467929 -0.484273 0.739271
vn -0.384923 0.219257 0.896527
vn -0.989308 -0.134686 -0.055934
vn -0.985465 -0.136578 0.101019
vn 0.951982 -0.262331 -0.157837
vn 0.965087 -0.138531 0.222297
vn 0.471685 0.149725 0.868963
vn 0.002257 -0.540693 0.841217
vn -0.009685 0.214056 0.976773
vn -0.803286 0.078280 -0.590426
vn -0.690151 -0.379001 -0.616482
vn -0.311623 0.302796 -0.900670
vn -0.208333 -0.295631 -0.932309
vn 0.012637 0.374204 -0.927261
vn 0.002051 -0.233878 -0.972264
vn 0.294208 -0.277564 -0.914549
vn 0.910748 -0.235384 -0.339312
vn 0.186301 -0.506629 0.841795
vn 0.325779 0.024169 0.945137
vn 0.442990 0.174603 0.879360
vn 0.650568 0.290129 -0.701845
vn 0.399642 0.302506 -0.865319
vn 0.184479 0.677358 -0.712147
vn 0.919920 0.190330 -0.342813
vn 0.964352 0.244479 0.101268
vn 0.700708 0.092252 0.707458
vn -0.994231 -0.096898 -0.045984
vn -0.831318 -0.407596 0.377857
vn -0.368063 -0.670816 0.643844
vn 0.058318 -0.652805 0.755278
vn -0.801597 0.254515 -0.540984
vn -0.326234 0.498577 -0.803114
vn 0.028367 0.607568 -0.793761
vn 0.559317 0.202641 -0.803804
vn 0.909482 0.110566 -0.400771
vn 0.108631 0.301845 -0.947148
vn -0.132795 0.693917 -0.707704
vn -0.292017 0.726220 -0.622358
vn -0.885853 0.333025 -0.323047
vn -0.966716 -0.254293 0.028187
vn -0.635831 -0.679047 0.366897
vn -0.195481 -0.783779 0.589473
vn -0.028605 -0.650564 0.758913
vn 0.152247 -0.102389 0.983024
vn 0.342672 0.143707 0.928399
vn 0.590718 0.007807 0.806841
vn 0.963514 0.155386 0.217935
s 1
g polySurface75 polySurface49 polySurface48 polySurface46
usemtl lambert3SG
f 2/2/1 3/3/2 1/1/3
f 1/1/3 3/3/2 4/4/4
f 6/6/5 3/3/2 5/5/6
f 5/5/6 3/3/2 2/2/1
f 7/7/7 8/8/8 6/6/5
f 6/6/5 8/8/8 3/3/2
f 4/4/4 3/3/2 9/9/9
f 9/9/9 3/3/2 8/8/8
f 9/9/9 8/8/8 11/11/10
f 11/11/10 8/8/8 10/10/11
f 7/7/7 12/12/12 8/8/8
f 8/8/8 12/12/12 10/10/11
f 14/14/13 10/10/11 13/13/14
f 13/13/14 10/10/11 12/12/12
f 11/11/10 10/10/11 15/15/15
f 15/15/15 10/10/11 14/14/13
f 2/2/1 31/16/16 5/5/6
f 5/5/6 31/16/16 32/17/17
f 1/1/3 33/18/18 2/2/1
f 2/2/1 33/18/18 31/16/16
f 35/20/19 31/16/16 34/19/20
f 34/19/20 31/16/16 33/18/18
f 36/21/21 32/17/17 35/20/19
f 35/20/19 32/17/17 31/16/16
f 6/6/5 47/22/22 7/7/7
f 7/7/7 47/22/22 44/23/23
f 5/5/6 32/17/17 6/6/5
f 6/6/5 32/17/17 47/22/22
f 36/21/21 48/24/24 32/17/17
f 32/17/17 48/24/24 47/22/22
f 44/23/23 47/22/22 45/25/25
f 45/25/25 47/22/22 48/24/24
f 29/27/26 70/28/27 30/26/28
f 30/26/28 70/28/27 71/29/29
f 28/30/30 69/31/31 29/27/26
f 29/27/26 69/31/31 70/28/27
f 36/21/21 35/20/19 63/33/32
f 63/33/32 35/20/19 74/32/33
f 73/34/34 74/32/33 34/19/20
f 34/19/20 74/32/33 35/20/19
f 34/19/20 38/35/35 73/34/34
f 73/34/34 38/35/35 72/36/36
f 30/26/28 71/29/29 38/35/35
f 38/35/35 71/29/29 72/36/36
f 42/37/37 68/38/38 28/30/30
f 28/30/30 68/38/38 69/31/31
f 41/39/39 67/40/40 42/37/37
f 42/37/37 67/40/40 68/38/38
f 46/41/41 66/42/42 41/39/39
f 41/39/39 66/42/42 67/40/40
f 65/43/43 66/42/42 45/25/25
f 45/25/25 66/42/42 46/41/41
f 45/25/25 48/24/24 65/43/43
f 65/43/43 48/24/24 64/44/44
f 63/33/32 64/44/44 36/21/21
f 36/21/21 64/44/44 48/24/24
f 1/1/3 4/4/4 18/45/45
f 18/45/45 4/4/4 16/46/46
f 9/9/9 17/47/47 4/4/4
f 4/4/4 17/47/47 16/46/46
f 13/13/14 12/12/12 21/48/48
f 21/48/48 12/12/12 19/49/49
f 20/50/50 19/49/49 7/7/7
f 7/7/7 19/49/49 12/12/12
f 14/14/13 22/51/51 15/15/15
f 15/15/15 22/51/51 23/52/52
f 21/48/48 22/51/51 13/13/14
f 13/13/14 22/51/51 14/14/13
f 11/11/10 24/53/53 9/9/9
f 9/9/9 24/53/53 17/47/47
f 15/15/15 23/52/52 11/11/10
f 11/11/10 23/52/52 24/53/53
f 28/30/30 29/27/26 27/54/54
f 27/54/54 29/27/26 25/55/55
f 26/56/56 25/55/55 30/26/28
f 30/26/28 25/55/55 29/27/26
f 18/45/45 37/57/57 1/1/3
f 1/1/3 37/57/57 33/18/18
f 30/26/28 38/35/35 26/56/56
f 26/56/56 38/35/35 37/57/57
f 34/19/20 33/18/18 38/35/35
f 38/35/35 33/18/18 37/57/57
f 42/37/37 39/58/58 41/39/39
f 41/39/39 39/58/58 40/59/59
f 28/30/30 27/54/54 42/37/37
f 42/37/37 27/54/54 39/58/58
f 7/7/7 44/23/23 20/50/50
f 20/50/50 44/23/23 43/60/60
f 45/25/25 46/41/41 44/23/23
f 44/23/23 46/41/41 43/60/60
f 40/59/59 43/60/60 41/39/39
f 41/39/39 43/60/60 46/41/41
f 54/61/61 55/62/62 21/48/48
f 21/48/48 55/62/62 22/51/51
f 52/63/63 54/61/61 19/49/49
f 19/49/49 54/61/61 21/48/48
f 53/64/64 52/63/63 20/50/50
f 20/50/50 52/63/63 19/49/49
f 20/50/50 43/60/60 53/64/64
f 53/64/64 43/60/60 62/65/65
f 62/65/65 43/60/60 40/59/59
f 61/66/66 62/65/65 39/58/58
f 39/58/58 62/65/65 40/59/59
f 60/67/67 61/66/66 27/54/54
f 27/54/54 61/66/66 39/58/58
f 58/68/68 60/67/67 25/55/55
f 25/55/55 60/67/67 27/54/54
f 59/69/69 58/68/68 26/56/56
f 26/56/56 58/68/68 25/55/55
f 18/45/45 51/70/70 37/57/57
f 51/70/70 59/69/69 37/57/57
f 59/69/69 26/56/56 37/57/57
f 51/70/70 18/45/45 49/71/71
f 49/71/71 18/45/45 16/46/46
f 49/71/71 16/46/46 50/72/72
f 50/72/72 16/46/46 17/47/47
f 50/72/72 17/47/47 57/73/73
f 57/73/73 17/47/47 24/53/53
f 57/73/73 24/53/53 56/74/74
f 56/74/74 24/53/53 23/52/52
f 56/74/74 23/52/52 55/62/62
f 55/62/62 23/52/52 22/51/51
