# This file uses centimeters as units for non-parametric coordinates.

mtllib GodzillaRightLowerLeg.mtl
g default
v -0.253088 0.300782 1.150119
v -0.410403 0.088341 1.142249
v 0.056176 -0.057018 1.326024
v 0.130302 0.272057 1.231452
v -0.532072 -0.247882 1.062826
v -0.017396 -0.391852 1.367440
v 0.509589 -0.247882 1.062826
v 0.513673 0.088341 1.142249
v 0.484074 0.300782 1.150119
v -0.324206 -0.920437 1.243037
v -0.357925 -1.065735 0.849661
v 0.048162 -1.148629 0.873007
v -0.016385 -0.930625 1.336870
v -0.310177 -1.208097 0.236953
v 0.113143 -1.320267 0.225016
v 0.541339 -1.208097 0.236953
v 0.457126 -1.065735 0.849661
v 0.314431 -0.920437 1.243037
v -0.685888 0.529916 0.683449
v -0.376525 0.599843 0.919484
v -0.783196 0.486096 0.350939
v 0.778203 0.529916 0.683449
v 0.757544 0.486096 0.350939
v 0.643622 0.599843 0.919484
v 0.167924 0.619288 1.011229
v -0.719677 0.557875 -0.033041
v -0.417503 0.655731 -0.331532
v -0.383514 -0.298080 0.016985
v -0.607563 -0.259868 0.515641
v 0.140679 0.709008 -0.440503
v 0.637492 0.655731 -0.331532
v 0.634507 -0.298080 0.016985
v 0.145732 -0.102810 -0.191404
v 0.781774 0.557875 -0.033041
v 0.695804 -0.259868 0.515641
v -0.542538 -0.792213 0.786714
v -0.435864 -0.711186 1.268205
v -0.481190 -0.877105 0.211055
v -0.390410 -0.863976 -1.093423
v -0.295478 -0.844395 -1.125254
v -0.303871 -1.111833 -1.192055
v -0.414970 -1.080188 -1.125254
v -0.203563 -0.863976 -1.093423
v -0.192772 -1.080188 -1.125254
v -0.221921 -1.266242 -1.093423
v -0.312264 -1.315981 -1.125254
v -0.399590 -1.266242 -1.093423
v 0.638293 -0.792213 0.786714
v 0.717280 -0.877105 0.211055
v 0.399266 -0.711186 1.268205
v -0.041140 -0.693807 1.450558
v 0.143499 -0.368132 -0.425532
v -0.304756 -0.529749 -0.304268
v 0.599305 -0.529749 -0.306057
v 0.670070 -0.572493 -0.652141
v 0.454694 -0.426630 -0.694752
v 0.332219 -0.529767 -0.820130
v 0.131545 -0.416276 -0.743826
v -0.077587 -0.529767 -0.809825
v -0.173801 -0.426630 -0.680868
v -0.372544 -0.572493 -0.637828
v 0.739434 -0.909304 -0.260045
v 0.586902 -1.261235 -0.279007
v 0.669093 -1.270907 -0.652141
v 0.760754 -0.923308 -0.641204
v 0.132573 -1.412512 -0.399619
v -0.301599 -1.261235 -0.277218
v -0.379677 -1.270907 -0.637828
v -0.194748 -1.410444 -0.680868
v -0.106929 -1.325873 -0.809825
v 0.110933 -1.419833 -0.743826
v 0.327255 -1.325873 -0.820130
v 0.451607 -1.410444 -0.694752
v -0.444681 -0.909304 -0.258256
v -0.458625 -0.923308 -0.626891
v 0.005117 -0.863976 -1.304215
v 0.121886 -0.844395 -1.351444
v 0.113543 -1.111833 -1.450558
v -0.029800 -1.080188 -1.351444
v 0.235656 -0.863976 -1.304215
v 0.256887 -1.080188 -1.351444
v 0.226587 -1.266242 -1.304215
v 0.105201 -1.315981 -1.351444
v -0.013186 -1.266242 -1.304215
v 0.459256 -0.863976 -1.157831
v 0.569872 -0.844395 -1.194368
v 0.569922 -1.111833 -1.271042
v 0.435072 -1.080188 -1.194368
v 0.680506 -0.863976 -1.157831
v 0.704772 -1.080188 -1.194368
v 0.680561 -1.266242 -1.157831
v 0.569972 -1.315981 -1.194368
v 0.459366 -1.266242 -1.157831
v -0.277187 -0.596749 -0.936126
v -0.409521 -0.704682 -0.927305
v -0.164487 -0.699048 -0.946650
v -0.117146 -0.945260 -0.881404
v -0.140368 -0.999254 -0.958795
v -0.190635 -1.292530 -0.946650
v -0.300917 -1.396373 -0.936126
v -0.418508 -1.286253 -0.927305
v -0.462370 -0.997155 -0.929077
v 0.126219 -0.595202 -1.076780
v -0.027950 -0.699048 -1.079262
v 0.273498 -0.699048 -1.080324
v 0.346275 -0.945260 -0.894858
v 0.322739 -0.999254 -1.093525
v 0.264897 -1.292530 -1.080324
v 0.102686 -1.397804 -1.076780
v -0.054049 -1.292530 -1.079262
v -0.095277 -0.999254 -1.091950
v 0.555520 -0.596749 -0.978494
v 0.418664 -0.699048 -0.988232
v 0.705147 -0.704682 -0.969317
v 0.762680 -0.997155 -0.971552
v 0.705073 -1.286253 -0.969317
v 0.555289 -1.396373 -0.978494
v 0.418349 -1.292530 -0.988232
v 0.372039 -0.999254 -1.001056
v 0.850965 1.027146 0.026285
v 0.836005 1.193054 -0.319052
v 0.650242 1.356017 -0.534186
v 0.114962 1.419833 -0.607183
v -0.478914 1.356017 -0.534186
v -0.809060 1.193054 -0.319052
v -0.890303 1.027146 0.026285
v -0.789246 0.951883 0.454293
v -0.435457 0.935186 0.811718
v 0.188500 0.930960 0.943131
v 0.734625 0.935186 0.811718
v 0.890303 0.951883 0.454293
vt 0.875000 0.200000
vt 0.937500 0.200000
vt 0.937500 0.200000
vt 0.875000 0.200000
vt 1.000000 0.200000
vt 1.000000 0.200000
vt 1.000000 0.200000
vt 0.937500 0.200000
vt 0.875000 0.200000
vt 1.000000 0.200000
vt 1.000000 0.250000
vt 1.000000 0.250000
vt 1.000000 0.200000
vt 1.000000 0.300000
vt 1.000000 0.300000
vt 1.000000 0.300000
vt 1.000000 0.250000
vt 1.000000 0.200000
vt 0.937500 0.200000
vt 1.000000 0.200000
vt 0.875000 0.200000
vt 0.937500 0.200000
vt 0.875000 0.200000
vt 1.000000 0.200000
vt 0.875000 0.200000
vt 1.000000 0.300000
vt 1.000000 0.250000
vt 1.000000 0.250000
vt 1.000000 0.300000
vt 1.000000 0.300000
vt 1.000000 0.300000
vt 1.000000 0.300000
vt 1.000000 0.300000
vt 1.000000 0.250000
vt 1.000000 0.250000
vt 1.000000 0.250000
vt 1.000000 0.200000
vt 1.000000 0.300000
vt 1.000000 0.300000
vt 1.000000 0.300000
vt 1.000000 0.300000
vt 1.000000 0.300000
vt 1.000000 0.300000
vt 1.000000 0.300000
vt 1.000000 0.300000
vt 1.000000 0.300000
vt 1.000000 0.300000
vt 1.000000 0.250000
vt 1.000000 0.300000
vt 1.000000 0.200000
vt 1.000000 0.200000
vt 1.000000 0.300000
vt 1.000000 0.300000
vt 1.000000 0.300000
vt 1.000000 0.300000
vt 1.000000 0.300000
vt 1.000000 0.300000
vt 1.000000 0.300000
vt 1.000000 0.300000
vt 1.000000 0.300000
vt 1.000000 0.300000
vt 1.000000 0.300000
vt 1.000000 0.300000
vt 1.000000 0.300000
vt 1.000000 0.300000
vt 1.000000 0.300000
vt 1.000000 0.300000
vt 1.000000 0.300000
vt 1.000000 0.300000
vt 1.000000 0.300000
vt 1.000000 0.300000
vt 1.000000 0.300000
vt 1.000000 0.300000
vt 1.000000 0.300000
vt 1.000000 0.300000
vt 1.000000 0.300000
vt 1.000000 0.300000
vt 1.000000 0.300000
vt 1.000000 0.300000
vt 1.000000 0.300000
vt 1.000000 0.300000
vt 1.000000 0.300000
vt 1.000000 0.300000
vt 1.000000 0.300000
vt 1.000000 0.300000
vt 1.000000 0.300000
vt 1.000000 0.300000
vt 1.000000 0.300000
vt 1.000000 0.300000
vt 1.000000 0.300000
vt 1.000000 0.300000
vt 1.000000 0.300000
vt 1.000000 0.300000
vt 1.000000 0.300000
vt 1.000000 0.300000
vt 1.000000 0.300000
vt 1.000000 0.300000
vt 1.000000 0.300000
vt 1.000000 0.300000
vt 1.000000 0.300000
vt 1.000000 0.300000
vt 1.000000 0.300000
vt 1.000000 0.300000
vt 1.000000 0.300000
vt 1.000000 0.300000
vt 1.000000 0.300000
vt 1.000000 0.300000
vt 1.000000 0.300000
vt 1.000000 0.300000
vt 1.000000 0.300000
vt 1.000000 0.300000
vt 1.000000 0.300000
vt 1.000000 0.300000
vt 1.000000 0.300000
vt 1.000000 0.300000
vt 1.000000 0.300000
vt 1.000000 0.300000
vt 1.000000 0.300000
vt 1.000000 0.300000
vt 1.000000 0.200000
vt 1.000000 0.250000
vt 1.000000 0.300000
vt 1.000000 0.300000
vt 1.000000 0.300000
vt 1.000000 0.250000
vt 1.000000 0.200000
vt 0.937500 0.200000
vt 0.875000 0.200000
vt 0.875000 0.200000
vt 0.875000 0.200000
vt 0.937500 0.200000
vn -0.526555 0.208761 0.824111
vn 0.079719 0.120236 0.989540
vn -0.268020 0.403664 0.874769
vn 0.078535 0.325663 0.942219
vn -0.874189 0.002790 0.485578
vn -0.057207 0.195351 0.979064
vn 0.627519 -0.009230 0.778547
vn 0.823791 -0.046547 0.564980
vn 0.356351 0.305595 0.882964
vn -0.646702 -0.739913 0.185214
vn -0.036360 -0.941014 0.336408
vn -0.500704 -0.660432 0.559576
vn -0.003962 -0.713499 0.700645
vn 0.026721 -0.982619 0.183699
vn -0.630246 -0.769694 0.101787
vn 0.720183 -0.670656 0.177642
vn 0.560484 -0.739464 0.372896
vn 0.396455 -0.621561 0.675637
vn -0.803366 0.123209 0.582599
vn -0.982271 -0.165211 0.088594
vn -0.396779 0.329475 0.856745
vn 0.567794 0.181368 0.802942
vn 0.941206 -0.140159 0.307387
vn 0.982447 -0.182216 0.039942
vn 0.010898 0.442039 0.896930
vn -0.975161 -0.175877 -0.134641
vn -0.833744 -0.329800 -0.442835
vn -0.777133 -0.047843 -0.627515
vn -0.369719 -0.323538 -0.870994
vn 0.890502 0.034243 -0.453689
vn 0.009363 0.203891 -0.978949
vn 0.525161 -0.283688 -0.802326
vn 0.008561 -0.269095 -0.963076
vn 0.994573 -0.022056 0.101677
vn 0.967123 -0.171025 -0.188209
vn -0.937524 -0.319107 0.138632
vn -0.698220 -0.074866 0.711958
vn -0.973424 -0.186103 -0.133459
vn -0.727952 0.322887 -0.604839
vn -0.006532 0.432301 -0.901706
vn -0.799362 0.022198 -0.600439
vn 0.002485 -0.104795 -0.994491
vn 0.717952 0.250263 -0.649548
vn 0.778761 -0.025070 -0.626820
vn -0.009086 -0.798895 -0.601402
vn 0.689168 -0.418095 -0.591814
vn -0.725544 -0.396738 -0.562304
vn 0.997038 -0.073719 0.021927
vn 0.921737 -0.234311 0.309028
vn 0.671081 -0.104074 0.734043
vn -0.013449 -0.170346 0.985293
vn -0.753267 0.619794 -0.220101
vn -0.003254 0.964991 -0.262262
vn 0.754631 0.631658 -0.177594
vn 0.814440 0.577514 -0.056257
vn 0.269601 0.922955 -0.274719
vn 0.093200 0.701652 -0.706398
vn -0.010463 0.890036 -0.455770
vn -0.115619 0.685764 -0.718582
vn -0.297864 0.914522 -0.273728
vn -0.829636 0.555538 -0.055509
vn 0.994903 -0.055001 0.084521
vn 0.639805 -0.749951 0.167998
vn 0.806593 -0.574141 0.140604
vn 0.997402 -0.037665 0.061398
vn -0.003352 -0.989103 0.147190
vn -0.662000 -0.734623 0.148612
vn -0.838538 -0.521741 0.156975
vn -0.206545 -0.977588 -0.040758
vn 0.150681 -0.841617 -0.518629
vn -0.008124 -0.971254 -0.237907
vn 0.034943 -0.881947 -0.470052
vn 0.185577 -0.981388 -0.049392
vn -0.998488 -0.051376 0.019571
vn -0.997854 -0.029132 0.058633
vn -0.721850 0.392058 -0.570284
vn 0.005248 0.556254 -0.830996
vn -0.808346 0.048378 -0.586717
vn 0.001142 -0.146562 -0.989201
vn 0.741441 0.354508 -0.569728
vn 0.813497 -0.002651 -0.581563
vn -0.004441 -0.763601 -0.645674
vn 0.664882 -0.571194 -0.481320
vn -0.679662 -0.541007 -0.495349
vn -0.691627 0.316179 -0.649372
vn 0.009631 0.477323 -0.878675
vn -0.763864 0.007502 -0.645334
vn -0.000010 -0.117328 -0.993093
vn 0.718634 0.347959 -0.602071
vn 0.790642 0.003855 -0.612267
vn -0.002172 -0.703438 -0.710753
vn 0.676894 -0.529106 -0.511723
vn -0.652083 -0.512662 -0.558539
vn -0.166911 0.748215 -0.642117
vn -0.810575 0.469385 -0.350209
vn 0.698750 0.320275 -0.639666
vn -0.525543 0.105922 -0.844147
vn 0.937091 -0.014764 -0.348772
vn 0.794929 -0.478155 -0.373438
vn -0.054024 -0.973187 -0.223582
vn -0.872831 -0.481300 -0.080729
vn -0.995299 -0.003211 -0.096797
vn -0.000215 0.809597 -0.586986
vn -0.750657 0.489367 -0.443886
vn 0.766404 0.455733 -0.452696
vn 0.104011 -0.016298 -0.994443
vn 0.979630 0.019592 -0.199855
vn 0.885587 -0.420489 -0.197295
vn -0.006682 -0.978124 -0.207915
vn -0.903739 -0.382768 -0.191691
vn -0.975005 0.076054 -0.208761
vn 0.138641 0.785141 -0.603599
vn -0.692322 0.392168 -0.605718
vn 0.792915 0.501704 -0.345803
vn 0.994150 -0.018272 -0.106451
vn 0.885023 -0.462196 -0.055767
vn 0.026283 -0.976945 -0.211867
vn -0.869639 -0.369210 -0.327737
vn -0.955211 0.032302 -0.294158
vn 0.981999 -0.176233 -0.067964
vn 0.857031 -0.225633 -0.463236
vn 0.321905 -0.249765 -0.913233
vn 0.005647 -0.228098 -0.973622
vn -0.226368 -0.271029 -0.935575
vn -0.659882 -0.338689 -0.670706
vn -0.967087 -0.225979 -0.116948
vn -0.908608 0.024086 0.416956
vn -0.518651 0.211498 0.828414
vn 0.013296 0.236947 0.971432
vn 0.732786 0.053399 0.678361
vn 0.978901 -0.186477 0.083542
s 1
g polySurface76 polySurface49 polySurface48 polySurface46
usemtl lambert3SG
f 2/2/1 3/3/2 1/1/3
f 1/1/3 3/3/2 4/4/4
f 5/5/5 6/6/6 2/2/1
f 2/2/1 6/6/6 3/3/2
f 8/8/7 3/3/2 7/7/8
f 7/7/8 3/3/2 6/6/6
f 9/9/9 4/4/4 8/8/7
f 8/8/7 4/4/4 3/3/2
f 11/11/10 12/12/11 10/10/12
f 10/10/12 12/12/11 13/13/13
f 15/15/14 12/12/11 14/14/15
f 14/14/15 12/12/11 11/11/10
f 16/16/16 17/17/17 15/15/14
f 15/15/14 17/17/17 12/12/11
f 13/13/13 12/12/11 18/18/18
f 18/18/18 12/12/11 17/17/17
f 2/2/1 19/19/19 5/5/5
f 5/5/5 19/19/19 21/20/20
f 1/1/3 20/21/21 2/2/1
f 2/2/1 20/21/21 19/19/19
f 9/9/9 8/8/7 24/23/22
f 24/23/22 8/8/7 22/22/23
f 23/24/24 22/22/23 7/7/8
f 7/7/8 22/22/23 8/8/7
f 4/4/4 25/25/25 1/1/3
f 1/1/3 25/25/25 20/21/21
f 24/23/22 25/25/25 9/9/9
f 9/9/9 25/25/25 4/4/4
f 29/27/26 26/28/27 28/26/28
f 28/26/28 26/28/27 27/29/29
f 5/5/5 21/20/20 29/27/26
f 29/27/26 21/20/20 26/28/27
f 32/30/30 33/31/31 31/33/32
f 31/33/32 33/31/31 30/32/33
f 28/26/28 27/29/29 33/31/31
f 33/31/31 27/29/29 30/32/33
f 7/7/8 35/34/34 23/24/24
f 23/24/24 35/34/34 34/35/35
f 31/33/32 34/35/35 32/30/30
f 32/30/30 34/35/35 35/34/34
f 29/27/26 36/36/36 5/5/5
f 5/5/5 36/36/36 37/37/37
f 28/26/28 38/38/38 29/27/26
f 29/27/26 38/38/38 36/36/36
f 14/14/15 11/11/10 38/38/38
f 38/38/38 11/11/10 36/36/36
f 37/37/37 36/36/36 10/10/12
f 10/10/12 36/36/36 11/11/10
f 39/39/39 40/40/40 42/42/41
f 42/42/41 40/40/40 41/41/42
f 43/43/43 44/44/44 40/40/40
f 40/40/40 44/44/44 41/41/42
f 46/46/45 41/41/42 45/45/46
f 45/45/46 41/41/42 44/44/44
f 42/42/41 41/41/42 47/47/47
f 47/47/47 41/41/42 46/46/45
f 32/30/30 35/34/34 49/49/48
f 49/49/48 35/34/34 48/48/49
f 50/50/50 48/48/49 7/7/8
f 7/7/8 48/48/49 35/34/34
f 18/18/18 17/17/17 50/50/50
f 50/50/50 17/17/17 48/48/49
f 49/49/48 48/48/49 16/16/16
f 16/16/16 48/48/49 17/17/17
f 7/7/8 6/6/6 50/50/50
f 50/50/50 6/6/6 51/51/51
f 5/5/5 37/37/37 6/6/6
f 6/6/6 37/37/37 51/51/51
f 13/13/13 51/51/51 10/10/12
f 10/10/12 51/51/51 37/37/37
f 50/50/50 51/51/51 18/18/18
f 18/18/18 51/51/51 13/13/13
f 28/26/28 33/31/31 53/53/52
f 53/53/52 33/31/31 52/52/53
f 32/30/30 54/54/54 33/31/31
f 33/31/31 54/54/54 52/52/53
f 55/55/55 56/56/56 54/54/54
f 54/54/54 56/56/56 52/52/53
f 57/57/57 58/58/58 56/56/56
f 56/56/56 58/58/58 52/52/53
f 59/59/59 60/60/60 58/58/58
f 58/58/58 60/60/60 52/52/53
f 61/61/61 53/53/52 60/60/60
f 60/60/60 53/53/52 52/52/53
f 32/30/30 49/49/48 54/54/54
f 54/54/54 49/49/48 62/62/62
f 63/63/63 62/62/62 16/16/16
f 16/16/16 62/62/62 49/49/48
f 64/64/64 65/65/65 63/63/63
f 63/63/63 65/65/65 62/62/62
f 54/54/54 62/62/62 55/55/55
f 55/55/55 62/62/62 65/65/65
f 16/16/16 15/15/14 63/63/63
f 63/63/63 15/15/14 66/66/66
f 14/14/15 67/67/67 15/15/14
f 15/15/14 67/67/67 66/66/66
f 68/68/68 69/69/69 67/67/67
f 67/67/67 69/69/69 66/66/66
f 70/70/70 71/71/71 69/69/69
f 69/69/69 71/71/71 66/66/66
f 72/72/72 73/73/73 71/71/71
f 71/71/71 73/73/73 66/66/66
f 64/64/64 63/63/63 73/73/73
f 73/73/73 63/63/63 66/66/66
f 38/38/38 74/74/74 14/14/15
f 14/14/15 74/74/74 67/67/67
f 28/26/28 53/53/52 38/38/38
f 38/38/38 53/53/52 74/74/74
f 75/75/75 74/74/74 61/61/61
f 61/61/61 74/74/74 53/53/52
f 68/68/68 67/67/67 75/75/75
f 75/75/75 67/67/67 74/74/74
f 76/76/76 77/77/77 79/79/78
f 79/79/78 77/77/77 78/78/79
f 80/80/80 81/81/81 77/77/77
f 77/77/77 81/81/81 78/78/79
f 83/83/82 78/78/79 82/82/83
f 82/82/83 78/78/79 81/81/81
f 79/79/78 78/78/79 84/84/84
f 84/84/84 78/78/79 83/83/82
f 85/85/85 86/86/86 88/88/87
f 88/88/87 86/86/86 87/87/88
f 89/89/89 90/90/90 86/86/86
f 86/86/86 90/90/90 87/87/88
f 92/92/91 87/87/88 91/91/92
f 91/91/92 87/87/88 90/90/90
f 88/88/87 87/87/88 93/93/93
f 93/93/93 87/87/88 92/92/91
f 60/60/60 94/94/94 61/61/61
f 61/61/61 94/94/94 95/95/95
f 96/96/96 94/94/94 59/59/59
f 59/59/59 94/94/94 60/60/60
f 43/43/43 40/40/40 96/96/96
f 96/96/96 40/40/40 94/94/94
f 39/39/39 95/95/95 40/40/40
f 40/40/40 95/95/95 94/94/94
f 59/59/59 97/97/97 96/96/96
f 96/96/96 97/97/97 98/98/98
f 99/99/99 98/98/98 70/70/70
f 70/70/70 98/98/98 97/97/97
f 45/45/46 44/44/44 99/99/99
f 99/99/99 44/44/44 98/98/98
f 96/96/96 98/98/98 43/43/43
f 43/43/43 98/98/98 44/44/44
f 69/69/69 100/100/100 70/70/70
f 70/70/70 100/100/100 99/99/99
f 101/101/101 100/100/100 68/68/68
f 68/68/68 100/100/100 69/69/69
f 47/47/47 46/46/45 101/101/101
f 101/101/101 46/46/45 100/100/100
f 45/45/46 99/99/99 46/46/45
f 46/46/45 99/99/99 100/100/100
f 75/75/75 102/102/102 68/68/68
f 68/68/68 102/102/102 101/101/101
f 61/61/61 95/95/95 75/75/75
f 75/75/75 95/95/95 102/102/102
f 42/42/41 102/102/102 39/39/39
f 39/39/39 102/102/102 95/95/95
f 47/47/47 101/101/101 42/42/41
f 42/42/41 101/101/101 102/102/102
f 58/58/58 103/103/103 59/59/59
f 59/59/59 103/103/103 104/104/104
f 105/105/105 103/103/103 57/57/57
f 57/57/57 103/103/103 58/58/58
f 80/80/80 77/77/77 105/105/105
f 105/105/105 77/77/77 103/103/103
f 76/76/76 104/104/104 77/77/77
f 77/77/77 104/104/104 103/103/103
f 57/57/57 106/106/106 105/105/105
f 105/105/105 106/106/106 107/107/107
f 72/72/72 108/108/108 106/106/106
f 106/106/106 108/108/108 107/107/107
f 82/82/83 81/81/81 108/108/108
f 108/108/108 81/81/81 107/107/107
f 105/105/105 107/107/107 80/80/80
f 80/80/80 107/107/107 81/81/81
f 71/71/71 109/109/109 72/72/72
f 72/72/72 109/109/109 108/108/108
f 110/110/110 109/109/109 70/70/70
f 70/70/70 109/109/109 71/71/71
f 83/83/82 109/109/109 84/84/84
f 84/84/84 109/109/109 110/110/110
f 108/108/108 109/109/109 82/82/83
f 82/82/83 109/109/109 83/83/82
f 70/70/70 97/97/97 110/110/110
f 110/110/110 97/97/97 111/111/111
f 59/59/59 104/104/104 97/97/97
f 97/97/97 104/104/104 111/111/111
f 79/79/78 111/111/111 76/76/76
f 76/76/76 111/111/111 104/104/104
f 84/84/84 110/110/110 79/79/78
f 79/79/78 110/110/110 111/111/111
f 56/56/56 112/112/112 57/57/57
f 57/57/57 112/112/112 113/113/113
f 114/114/114 112/112/112 55/55/55
f 55/55/55 112/112/112 56/56/56
f 89/89/89 86/86/86 114/114/114
f 114/114/114 86/86/86 112/112/112
f 85/85/85 113/113/113 86/86/86
f 86/86/86 113/113/113 112/112/112
f 55/55/55 65/65/65 114/114/114
f 114/114/114 65/65/65 115/115/115
f 116/116/116 115/115/115 64/64/64
f 64/64/64 115/115/115 65/65/65
f 91/91/92 90/90/90 116/116/116
f 116/116/116 90/90/90 115/115/115
f 114/114/114 115/115/115 89/89/89
f 89/89/89 115/115/115 90/90/90
f 73/73/73 117/117/117 64/64/64
f 64/64/64 117/117/117 116/116/116
f 118/118/118 117/117/117 72/72/72
f 72/72/72 117/117/117 73/73/73
f 92/92/91 117/117/117 93/93/93
f 93/93/93 117/117/117 118/118/118
f 116/116/116 117/117/117 91/91/92
f 91/91/92 117/117/117 92/92/91
f 72/72/72 106/106/106 118/118/118
f 118/118/118 106/106/106 119/119/119
f 57/57/57 113/113/113 106/106/106
f 106/106/106 113/113/113 119/119/119
f 88/88/87 119/119/119 85/85/85
f 85/85/85 119/119/119 113/113/113
f 93/93/93 118/118/118 88/88/87
f 88/88/87 118/118/118 119/119/119
f 23/24/24 34/35/35 120/120/120
f 120/120/120 34/35/35 121/121/121
f 122/122/122 121/121/121 31/33/32
f 31/33/32 121/121/121 34/35/35
f 123/123/123 122/122/122 30/32/33
f 30/32/33 122/122/122 31/33/32
f 123/123/123 30/32/33 124/124/124
f 124/124/124 30/32/33 27/29/29
f 124/124/124 27/29/29 125/125/125
f 125/125/125 27/29/29 26/28/27
f 125/125/125 26/28/27 126/126/126
f 126/126/126 26/28/27 21/20/20
f 126/126/126 21/20/20 127/127/127
f 127/127/127 21/20/20 19/19/19
f 127/127/127 19/19/19 128/128/128
f 128/128/128 19/19/19 20/21/21
f 128/128/128 20/21/21 129/129/129
f 129/129/129 20/21/21 25/25/25
f 130/130/130 129/129/129 24/23/22
f 24/23/22 129/129/129 25/25/25
f 131/131/131 130/130/130 22/22/23
f 22/22/23 130/130/130 24/23/22
f 120/120/120 131/131/131 23/24/24
f 23/24/24 131/131/131 22/22/23
