# This file uses centimeters as units for non-parametric coordinates.

mtllib GodzillaRightArm.mtl
g default
v 0.131530 0.051673 -1.237156
v 0.097715 0.153683 -1.233003
v 0.241427 0.099245 -1.306441
v 0.262884 -0.012894 -1.278484
v 0.134447 0.227480 -1.194922
v 0.265689 0.197250 -1.238282
v 0.418207 0.122906 -1.247503
v 0.430858 0.030674 -1.283764
v 0.416533 -0.046814 -1.262353
v -0.542079 0.036258 1.236026
v -0.265150 0.136499 1.655576
v -0.865656 0.153082 0.739121
v -0.560288 0.165272 0.724683
v -0.326365 0.001588 1.104799
v -0.064590 0.032608 1.420677
v -0.941992 0.451084 0.479967
v -0.828969 0.745917 0.541220
v -0.399119 0.670701 0.566018
v -0.556354 0.440278 0.517220
v -0.639599 0.850692 0.925022
v -0.441154 0.732682 1.396068
v -0.077212 0.565592 1.236741
v -0.224239 0.715498 0.869261
v -0.268038 0.430627 1.690490
v 0.005749 0.276808 1.456839
v -0.137425 -0.122839 0.782777
v 0.081610 -0.261153 0.915947
v -0.210296 0.136840 0.631052
v 0.070620 0.103402 0.330221
v -0.010094 -0.248536 0.252587
v 0.158734 -0.559921 0.248342
v -0.035545 0.344856 0.530591
v 0.228894 0.419064 0.540180
v 0.741372 0.141965 0.307294
v 0.395448 0.234379 0.342348
v 0.396019 0.321984 0.686530
v 0.419746 0.103737 0.866792
v 0.801170 -0.383579 0.334118
v 0.884979 -0.101326 0.295971
v 0.296352 -0.145552 0.951002
v 0.497138 -0.582967 0.304498
v 0.021132 -0.306251 -0.511044
v 0.164933 -0.710617 -0.385972
v 0.166748 0.108308 -0.235098
v 0.149851 0.195729 -0.753105
v 0.032289 0.027319 -0.853923
v 0.095251 -0.084584 -1.047299
v 0.026059 -0.302926 -0.985848
v 0.087070 -0.523151 -1.061670
v 0.019350 -0.641603 -0.908517
v 0.131998 -0.813483 -0.832849
v 0.510251 0.188902 -0.177667
v 0.839402 0.028920 -0.235180
v 0.705134 0.066187 -0.783550
v 0.431798 0.205058 -0.744264
v 0.941992 -0.304870 -0.398365
v 0.841819 -0.611729 -0.235125
v 0.699220 -0.692015 -0.648426
v 0.793686 -0.520619 -0.700992
v 0.679233 -0.446893 -0.920299
v 0.799456 -0.319843 -0.866002
v 0.680992 -0.188801 -1.002731
v 0.795323 -0.114611 -0.842031
v 0.511137 -0.780205 -0.284763
v 0.417950 -0.825502 -0.725000
v 0.172173 -0.384407 -1.573923
v 0.141804 -0.273241 -1.629109
v 0.295624 -0.274740 -1.690490
v 0.309317 -0.394681 -1.583306
v 0.175897 -0.170490 -1.574506
v 0.312824 -0.166568 -1.596756
v 0.463840 -0.209257 -1.520848
v 0.480337 -0.288008 -1.550953
v 0.461812 -0.369562 -1.499366
v 0.117702 -0.817628 -1.206254
v 0.082912 -0.738521 -1.246595
v 0.232042 -0.681882 -1.210850
v 0.253455 -0.785477 -1.153218
v 0.120496 -0.638795 -1.215596
v 0.256147 -0.577664 -1.179355
v 0.413003 -0.553590 -1.095946
v 0.426689 -0.624620 -1.085977
v 0.411381 -0.715675 -1.062410
v 0.041568 0.148871 -1.087775
v 0.113558 0.015143 -1.133012
v 0.123600 0.246900 -1.059697
v 0.332782 0.224816 -1.084890
v 0.542082 0.111072 -1.119496
v 0.616034 -0.026678 -1.134602
v 0.537850 -0.107978 -1.141183
v 0.370514 -0.118050 -1.108209
v 0.322131 -0.081934 -1.153950
v 0.063209 -0.286386 -1.361942
v 0.135561 -0.439483 -1.354344
v 0.141026 -0.139005 -1.348898
v 0.352165 -0.128952 -1.334753
v 0.567942 -0.206001 -1.287716
v 0.645967 -0.306199 -1.248998
v 0.565855 -0.401608 -1.250101
v 0.365017 -0.498946 -1.069147
v 0.347073 -0.463038 -1.313046
v 0.024810 -0.747844 -1.145877
v 0.104612 -0.850692 -1.103862
v 0.102594 -0.613656 -1.134675
v 0.316391 -0.527200 -1.079201
v 0.535476 -0.512262 -0.989724
v 0.613958 -0.589012 -0.918673
v 0.536105 -0.718100 -0.915697
v 0.319121 -0.829083 -1.005444
vt 0.962845 0.600000
vt 0.981422 0.600000
vt 0.978624 0.650000
vt 0.957249 0.650000
vt 1.000000 0.600000
vt 1.000000 0.650000
vt 1.000000 0.700000
vt 0.975827 0.700000
vt 0.951653 0.700000
vt 1.000000 0.600000
vt 0.937500 0.600000
vt 0.937500 0.600000
vt 1.000000 0.600000
vt 0.875000 0.600000
vt 0.875000 0.600000
vt 1.000000 0.700000
vt 1.000000 0.650000
vt 1.000000 0.650000
vt 1.000000 0.700000
vt 0.875000 0.700000
vt 0.937500 0.700000
vt 0.937500 0.700000
vt 0.875000 0.700000
vt 0.875000 0.650000
vt 0.875000 0.650000
vt 0.937500 0.600000
vt 0.875000 0.600000
vt 1.000000 0.600000
vt 1.000000 0.600000
vt 0.937500 0.600000
vt 0.875000 0.600000
vt 1.000000 0.650000
vt 1.000000 0.700000
vt 1.000000 0.700000
vt 1.000000 0.650000
vt 0.937500 0.700000
vt 0.875000 0.700000
vt 0.875000 0.700000
vt 0.937500 0.700000
vt 0.875000 0.650000
vt 0.875000 0.650000
vt 0.937491 0.600000
vt 0.875000 0.600000
vt 1.000000 0.600000
vt 1.000000 0.600000
vt 0.981422 0.600000
vt 0.962845 0.600000
vt 0.937472 0.600000
vt 0.912099 0.600000
vt 0.893549 0.600000
vt 0.875000 0.600000
vt 1.000000 0.650000
vt 1.000000 0.700000
vt 1.000000 0.700000
vt 1.000000 0.650000
vt 0.936809 0.700000
vt 0.875000 0.700000
vt 0.875000 0.700000
vt 0.897102 0.700000
vt 0.919203 0.700000
vt 0.935428 0.700000
vt 0.951653 0.700000
vt 0.975827 0.700000
vt 0.875000 0.650000
vt 0.875000 0.650000
vt 0.912099 0.600000
vt 0.937472 0.600000
vt 0.936450 0.650000
vt 0.915651 0.650000
vt 0.962845 0.600000
vt 0.957249 0.650000
vt 0.951653 0.700000
vt 0.935428 0.700000
vt 0.919203 0.700000
vt 0.875000 0.600000
vt 0.893549 0.600000
vt 0.895325 0.650000
vt 0.875000 0.650000
vt 0.912099 0.600000
vt 0.915651 0.650000
vt 0.919203 0.700000
vt 0.897102 0.700000
vt 0.875000 0.700000
vt 0.981422 0.600000
vt 0.962845 0.600000
vt 1.000000 0.600000
vt 1.000000 0.650000
vt 1.000000 0.700000
vt 0.975827 0.700000
vt 0.951653 0.700000
vt 0.957249 0.650000
vt 0.957249 0.650000
vt 0.937472 0.600000
vt 0.912099 0.600000
vt 0.962845 0.600000
vt 0.957249 0.650000
vt 0.951653 0.700000
vt 0.935428 0.700000
vt 0.919203 0.700000
vt 0.915651 0.650000
vt 0.915651 0.650000
vt 0.893549 0.600000
vt 0.875000 0.600000
vt 0.912099 0.600000
vt 0.915651 0.650000
vt 0.919203 0.700000
vt 0.897102 0.700000
vt 0.875000 0.700000
vt 0.875000 0.650000
vn -0.697352 0.179272 -0.693946
vn -0.113366 0.158767 -0.980786
vn -0.640489 -0.413767 -0.646971
vn -0.269179 -0.631435 -0.727209
vn -0.340142 0.857083 -0.386926
vn 0.088875 0.749308 -0.656230
vn 0.437343 -0.014334 -0.899180
vn 0.419793 0.637802 -0.645742
vn 0.110304 -0.687905 -0.717370
vn -0.412598 -0.909128 -0.057007
vn -0.117273 -0.993096 -0.002522
vn -0.145632 -0.854247 -0.499052
vn 0.024014 -0.775564 -0.630812
vn 0.460401 -0.528753 0.713057
vn 0.221509 -0.813607 0.537566
vn 0.181068 0.617581 -0.765381
vn -0.003602 -0.270607 -0.962683
vn 0.137601 0.468849 -0.872495
vn 0.085331 -0.265445 -0.960342
vn 0.649537 0.676977 0.346127
vn 0.423659 0.904623 -0.046577
vn 0.447256 0.861797 0.239307
vn 0.259763 0.948847 -0.179478
vn 0.763152 0.036937 0.645163
vn 0.667396 0.431351 0.607058
vn -0.301016 -0.888939 0.345221
vn -0.806209 -0.535240 -0.252083
vn -0.515901 -0.505746 -0.691424
vn -0.979523 -0.197330 -0.039943
vn -0.775651 0.362412 -0.516742
vn -0.497224 -0.829841 0.253244
vn -0.192896 0.253155 -0.948000
vn 0.263023 0.810707 -0.523042
vn 0.548787 0.835286 -0.033607
vn -0.097832 0.895871 -0.433410
vn 0.678742 0.685115 0.264435
vn 0.805079 0.172217 0.567618
vn 0.723362 -0.441947 0.530499
vn 0.937197 0.166151 0.306685
vn 0.574828 -0.502375 0.645904
vn 0.234256 -0.864387 0.444926
vn -0.679772 -0.712009 0.175934
vn -0.993924 0.071832 0.083402
vn -0.612697 0.790128 -0.017307
vn -0.966209 0.255205 0.036219
vn -0.523864 0.829144 0.195157
vn -0.876373 -0.009415 -0.481541
vn -0.982695 0.030365 -0.182723
vn -0.718450 -0.294037 -0.630375
vn -0.984437 -0.171839 -0.036804
vn -0.421098 -0.892005 0.164329
vn 0.194015 0.979679 -0.050861
vn 0.765939 0.639432 -0.066812
vn 0.182495 0.983104 0.014186
vn 0.712112 0.681029 -0.170575
vn 0.989666 0.048791 -0.134837
vn 0.779873 -0.618034 0.099152
vn 0.644674 -0.733742 -0.214520
vn 0.830445 -0.425568 -0.359519
vn 0.653018 -0.494349 -0.573748
vn 0.897616 -0.128569 -0.421610
vn 0.775279 0.105342 -0.622773
vn 0.895175 0.211456 -0.392362
vn 0.118920 -0.976857 0.177786
vn 0.173647 -0.984769 0.008751
vn -0.749601 0.022541 -0.661506
vn 0.032305 -0.007188 -0.999452
vn -0.518893 -0.668645 -0.532601
vn 0.180070 -0.834739 -0.520370
vn 0.272026 0.780318 -0.563121
vn -0.440662 0.785283 -0.434910
vn 0.572293 0.705283 -0.418398
vn 0.735333 0.020860 -0.677385
vn 0.543637 -0.720632 -0.430288
vn -0.354244 -0.059356 -0.933267
vn 0.404414 -0.096851 -0.909434
vn -0.085202 -0.712999 -0.695970
vn 0.456611 -0.679629 -0.574118
vn 0.133628 0.612919 -0.778764
vn -0.395152 0.560031 -0.728162
vn 0.410132 0.489464 -0.769556
vn 0.623244 -0.126895 -0.771663
vn 0.616587 -0.465477 -0.634943
vn -0.957634 0.174070 -0.229428
vn -0.696009 -0.563298 -0.445272
vn -0.501678 0.862446 0.067128
vn 0.235338 0.963173 -0.130052
vn 0.618869 0.689647 -0.376016
vn 0.767194 0.086449 -0.635563
vn 0.253667 -0.689719 -0.678189
vn 0.146577 0.548650 -0.823103
vn -0.219920 -0.844341 -0.488593
vn -0.974497 0.024874 -0.223017
vn -0.440539 -0.848500 -0.293212
vn -0.395007 0.901540 -0.176622
vn 0.159238 0.978788 -0.128907
vn 0.619145 0.733578 -0.280221
vn 0.894665 -0.142139 -0.423522
vn 0.485317 -0.828832 -0.278397
vn 0.312710 -0.618636 -0.720765
vn 0.153665 -0.960976 -0.230026
vn -0.360471 -0.928599 -0.088121
vn -0.947721 -0.064069 -0.312602
vn -0.607498 0.663997 -0.435952
vn 0.050749 0.653335 -0.755366
vn 0.515689 0.057831 -0.854822
vn 0.704663 -0.348611 -0.617998
vn 0.642432 -0.624692 -0.443893
vn 0.333923 -0.912802 -0.235135
s 1
g polySurface31 polySurface29 polySurface26 polyToSubd1
usemtl lambert3SG
f 2/2/1 3/3/2 1/1/3
f 1/1/3 3/3/2 4/4/4
f 5/5/5 6/6/6 2/2/1
f 2/2/1 6/6/6 3/3/2
f 8/8/7 3/3/2 7/7/8
f 7/7/8 3/3/2 6/6/6
f 9/9/9 4/4/4 8/8/7
f 8/8/7 4/4/4 3/3/2
f 14/11/10 10/12/11 13/10/12
f 13/10/12 10/12/11 12/13/13
f 11/15/14 10/12/11 15/14/15
f 15/14/15 10/12/11 14/11/10
f 18/16/16 19/17/17 17/19/18
f 17/19/18 19/17/17 16/18/19
f 13/10/12 12/13/13 19/17/17
f 19/17/17 12/13/13 16/18/19
f 22/20/20 23/21/21 21/23/22
f 21/23/22 23/21/21 20/22/23
f 17/19/18 20/22/23 18/16/16
f 18/16/16 20/22/23 23/21/21
f 15/14/15 25/24/24 11/15/14
f 11/15/14 25/24/24 24/25/25
f 21/23/22 24/25/25 22/20/20
f 22/20/20 24/25/25 25/24/24
f 15/14/15 14/11/10 27/27/26
f 27/27/26 14/11/10 26/26/27
f 13/10/12 28/28/28 14/11/10
f 14/11/10 28/28/28 26/26/27
f 30/30/29 26/26/27 29/29/30
f 29/29/30 26/26/27 28/28/28
f 31/31/31 27/27/26 30/30/29
f 30/30/29 27/27/26 26/26/27
f 13/10/12 19/17/17 28/28/28
f 28/28/28 19/17/17 32/32/32
f 33/33/33 32/32/32 18/16/16
f 18/16/16 32/32/32 19/17/17
f 34/34/34 35/35/35 33/33/33
f 33/33/33 35/35/35 32/32/32
f 28/28/28 32/32/32 29/29/30
f 29/29/30 32/32/32 35/35/35
f 18/16/16 23/21/21 33/33/33
f 33/33/33 23/21/21 36/36/36
f 37/37/37 36/36/36 22/20/20
f 22/20/20 36/36/36 23/21/21
f 38/38/38 39/39/39 37/37/37
f 37/37/37 39/39/39 36/36/36
f 33/33/33 36/36/36 34/34/34
f 34/34/34 36/36/36 39/39/39
f 22/20/20 25/24/24 37/37/37
f 37/37/37 25/24/24 40/40/40
f 27/27/26 40/40/40 15/14/15
f 15/14/15 40/40/40 25/24/24
f 31/31/31 41/41/41 27/27/26
f 27/27/26 41/41/41 40/40/40
f 37/37/37 40/40/40 38/38/38
f 38/38/38 40/40/40 41/41/41
f 31/31/31 30/30/29 43/43/42
f 43/43/42 30/30/29 42/42/43
f 29/29/30 44/44/44 30/30/29
f 30/30/29 44/44/44 42/42/43
f 46/46/45 42/42/43 45/45/46
f 45/45/46 42/42/43 44/44/44
f 47/47/47 48/48/48 46/46/45
f 46/46/45 48/48/48 42/42/43
f 49/49/49 50/50/50 48/48/48
f 48/48/48 50/50/50 42/42/43
f 51/51/51 43/43/42 50/50/50
f 50/50/50 43/43/42 42/42/43
f 29/29/30 35/35/35 44/44/44
f 44/44/44 35/35/35 52/52/52
f 53/53/53 52/52/52 34/34/34
f 34/34/34 52/52/52 35/35/35
f 55/55/54 52/52/52 54/54/55
f 54/54/55 52/52/52 53/53/53
f 45/45/46 44/44/44 55/55/54
f 55/55/54 44/44/44 52/52/52
f 34/34/34 39/39/39 53/53/53
f 53/53/53 39/39/39 56/56/56
f 38/38/38 57/57/57 39/39/39
f 39/39/39 57/57/57 56/56/56
f 58/58/58 59/59/59 57/57/57
f 57/57/57 59/59/59 56/56/56
f 60/60/60 61/61/61 59/59/59
f 59/59/59 61/61/61 56/56/56
f 62/62/62 63/63/63 61/61/61
f 61/61/61 63/63/63 56/56/56
f 53/53/53 56/56/56 54/54/55
f 54/54/55 56/56/56 63/63/63
f 38/38/38 41/41/41 57/57/57
f 57/57/57 41/41/41 64/64/64
f 43/43/42 64/64/64 31/31/31
f 31/31/31 64/64/64 41/41/41
f 51/51/51 65/65/65 43/43/42
f 43/43/42 65/65/65 64/64/64
f 57/57/57 64/64/64 58/58/58
f 58/58/58 64/64/64 65/65/65
f 67/67/66 68/68/67 66/66/68
f 66/66/68 68/68/67 69/69/69
f 71/71/70 68/68/67 70/70/71
f 70/70/71 68/68/67 67/67/66
f 72/72/72 73/73/73 71/71/70
f 71/71/70 73/73/73 68/68/67
f 74/74/74 69/69/69 73/73/73
f 73/73/73 69/69/69 68/68/67
f 76/76/75 77/77/76 75/75/77
f 75/75/77 77/77/76 78/78/78
f 80/80/79 77/77/76 79/79/80
f 79/79/80 77/77/76 76/76/75
f 81/81/81 82/82/82 80/80/79
f 80/80/79 82/82/82 77/77/76
f 78/78/78 77/77/76 83/83/83
f 83/83/83 77/77/76 82/82/82
f 46/46/45 84/84/84 47/47/47
f 47/47/47 84/84/84 85/85/85
f 45/45/46 86/86/86 46/46/45
f 46/46/45 86/86/86 84/84/84
f 2/2/1 84/84/84 5/5/5
f 5/5/5 84/84/84 86/86/86
f 1/1/3 85/85/85 2/2/1
f 2/2/1 85/85/85 84/84/84
f 55/55/54 87/87/87 45/45/46
f 45/45/46 87/87/87 86/86/86
f 54/54/55 88/88/88 55/55/54
f 55/55/54 88/88/88 87/87/87
f 6/6/6 87/87/87 7/7/8
f 7/7/8 87/87/87 88/88/88
f 86/86/86 87/87/87 5/5/5
f 5/5/5 87/87/87 6/6/6
f 63/63/63 89/89/89 54/54/55
f 54/54/55 89/89/89 88/88/88
f 90/90/90 89/89/89 62/62/62
f 62/62/62 89/89/89 63/63/63
f 9/9/9 8/8/7 90/90/90
f 90/90/90 8/8/7 89/89/89
f 7/7/8 88/88/88 8/8/7
f 8/8/7 88/88/88 89/89/89
f 62/62/62 91/91/91 90/90/90
f 90/90/90 91/91/91 92/92/92
f 85/85/85 92/92/92 47/47/47
f 47/47/47 92/92/92 91/91/91
f 1/1/3 4/4/4 85/85/85
f 85/85/85 4/4/4 92/92/92
f 90/90/90 92/92/92 9/9/9
f 9/9/9 92/92/92 4/4/4
f 48/48/48 93/93/93 49/49/49
f 49/49/49 93/93/93 94/94/94
f 95/95/95 93/93/93 47/47/47
f 47/47/47 93/93/93 48/48/48
f 67/67/66 93/93/93 70/70/71
f 70/70/71 93/93/93 95/95/95
f 94/94/94 93/93/93 66/66/68
f 66/66/68 93/93/93 67/67/66
f 47/47/47 91/91/91 95/95/95
f 95/95/95 91/91/91 96/96/96
f 62/62/62 97/97/97 91/91/91
f 91/91/91 97/97/97 96/96/96
f 71/71/70 96/96/96 72/72/72
f 72/72/72 96/96/96 97/97/97
f 95/95/95 96/96/96 70/70/71
f 70/70/71 96/96/96 71/71/70
f 61/61/61 98/98/98 62/62/62
f 62/62/62 98/98/98 97/97/97
f 99/99/99 98/98/98 60/60/60
f 60/60/60 98/98/98 61/61/61
f 73/73/73 98/98/98 74/74/74
f 74/74/74 98/98/98 99/99/99
f 72/72/72 97/97/97 73/73/73
f 73/73/73 97/97/97 98/98/98
f 60/60/60 100/100/100 99/99/99
f 99/99/99 100/100/100 101/101/101
f 94/94/94 101/101/101 49/49/49
f 49/49/49 101/101/101 100/100/100
f 66/66/68 69/69/69 94/94/94
f 94/94/94 69/69/69 101/101/101
f 99/99/99 101/101/101 74/74/74
f 74/74/74 101/101/101 69/69/69
f 51/51/51 50/50/50 103/103/102
f 103/103/102 50/50/50 102/102/103
f 49/49/49 104/104/104 50/50/50
f 50/50/50 104/104/104 102/102/103
f 76/76/75 102/102/103 79/79/80
f 79/79/80 102/102/103 104/104/104
f 103/103/102 102/102/103 75/75/77
f 75/75/77 102/102/103 76/76/75
f 100/100/100 105/105/105 49/49/49
f 49/49/49 105/105/105 104/104/104
f 60/60/60 106/106/106 100/100/100
f 100/100/100 106/106/106 105/105/105
f 80/80/79 105/105/105 81/81/81
f 81/81/81 105/105/105 106/106/106
f 79/79/80 104/104/104 80/80/79
f 80/80/79 104/104/104 105/105/105
f 59/59/59 107/107/107 60/60/60
f 60/60/60 107/107/107 106/106/106
f 108/108/108 107/107/107 58/58/58
f 58/58/58 107/107/107 59/59/59
f 83/83/83 82/82/82 108/108/108
f 108/108/108 82/82/82 107/107/107
f 81/81/81 106/106/106 82/82/82
f 82/82/82 106/106/106 107/107/107
f 58/58/58 65/65/65 108/108/108
f 108/108/108 65/65/65 109/109/109
f 103/103/102 109/109/109 51/51/51
f 51/51/51 109/109/109 65/65/65
f 75/75/77 78/78/78 103/103/102
f 103/103/102 78/78/78 109/109/109
f 108/108/108 109/109/109 83/83/83
f 83/83/83 109/109/109 78/78/78
